<svg xmlns="http://www.w3.org/2000/svg" id="svg1540" viewBox="0 0 420.21 419.79" version="1.0"><path id="path1555" d="M178.61 418.56C109.09 407.44 46.09 360.6 17.91 295.7-13.02 227.22-3.533 141.92 43.589 82.98 80.46 33.814 139.49.896 201.509.35c53.84-3.21 107.96 15.802 148.01 51.92 46.67 40.709 72.84 103.07 70.56 164.85-.32 80.07-52.41 156.62-126.57 186.69-36.06 16.37-76.04 17.67-114.9 14.75zm54.31-4.9c18.36 6.57 56.13-20.42 31.01-32.92-24.43-7.04-49.83-19.91-75.34-10.15-15.81 6.6-62.51 3.37-43.24 29.99 17.08 14.98 41.88 12.37 63.05 14.51 8.2.1 16.4-.32 24.52-1.43zm52.28-12.58c32.88-12.36 62.5-33.55 84.33-61.12-19.56-14.68-34.87 17.09-51.03 24.96-13.3 12.04-48.69 16.28-41.67 38.76 3.06.26 5.78-1.28 8.37-2.6zm-147.32-1.88c-2.17-27.64-37.885-28.32-51.905-48.09-11.416-8.43-31.396-41.4-41.581-18.83 23.686 30.14 54.392 57.41 92.086 68.16l.89-.78.51-.46zm158-26.42c20.02-11.98 46.6-24.93 51.68-49.52-1.17-23.18 19.38-59.18-4.94-73.82-22.24-1.42-47.87-22.88-66.7-2.16-18.74 19.37-44.84 30.5-61.54 51.9 2.19 20.28-10.67 50.85 6.9 63.73 21.72 5.51 44.37 19.06 66.85 13.91l3.87-1.79 3.88-2.25zm-139.24.82c16.67-8.73 55.08-1.09 52.6-26.57-2.24-21.29 8.16-50.81-15.66-62.29-20.32-16-41.59-30.7-62.47-45.93-21.78 2.98-50.767 5.25-64.936 22.33-2.271 21.71-5.714 46.74 2.169 67.22 16.84 18.42 36.257 35.95 59.317 46.12 9.52 3.87 19.48 1.59 28.98-.88zm218.53-43.85c18.81-19.54 26.36-46.69 35.25-71.6 6.91-20.79-1.05-43.67-14.46-59.4-14.87 5.82-18.63 30.21-28.74 43.91-12.46 21.33-7.43 46.35-14.14 69.21-3.44 15.71 7.84 22.28 22.09 17.88zM58.42 318.31c.468-24.34 9.229-52.48-3.828-74.27-11.89-13.85-25.584-57.84-46.564-31.74-9.226 26.95 6.643 54.5 13.289 80.38 5.474 15.7 18.36 36.23 37.103 25.63zm161.79-32.44c21.54-17.57 44.47-33.48 64.67-52.63-3.95-25.75-16.04-49.4-21.06-74.83-10.93-25.39-41.64-10.02-62.27-13.76-19.75-.06-43.84-5.99-46.1 20.19-8.02 20.45-14.7 41.4-22.19 62.04 8.12 23.77 36.59 30.26 53.43 46.49 9.04 6.88 21.33 23.73 33.52 12.5zM75.13 247.22c18.804-8.31 49.374-4.73 56.084-29.13 9.22-24.78 18.39-49.61 25.99-74.95-14.19-17.07-24.21-55.423-49.93-50.177-21.314 5.574-50.198 7.577-58.875 31.467-11.629 21.31-19.713 44.99-20.567 69.4 13.408 17.63 21.892 49.36 43.912 54.22l3.386-.83zm283 .18c10.95-22.07 30.06-43.63 32.37-67.97-3.14-23.21-11.88-45.6-25.03-64.96-21.7-4.35-49.73-31.747-68.09-14.655-12.85 19.335-40.43 37.905-28.05 63.665 10.36 21.11 9.23 47.37 24.85 65.58 15.45 11.4 36.37 10.48 53.97 17.85 3.29.59 6.65.86 9.98.49zm56.19-34.33c2.25-40.26-11.86-79.86-31.85-114.11-22.97 5.86 3.91 36.61 6.39 51.72 8.52 20.12 7.06 49.31 25.46 62.39zM13.91 201.9c18.218-19.24 10.694-49.45 25.41-70.93 6.832-8.37 22.485-38.589 4.404-35.931-17.28 17.141-25.372 42.151-32.375 65.021-.678 12.87-12.904 38.01-2.207 44.85l2.681-1.59 2.087-1.42zM258.75 139c11.89-17.43 41.53-37.31 34.81-58.045-16.37-18.147-27.48-46.497-53.21-52.155-23.09-.801-48.49-5.986-70.13 4.04-17.64 14.229-33.66 33.743-42.41 54.568 8.88 19.422 22.97 43.852 44.23 52.672 28.72-1.21 57.82.34 86.71-1.08zm111.34-39.96c6.68-24.688-21.95-38.783-36.95-52.945-17.3-12.547-36.16-23.511-56.97-29.021-28.15 15.915 9.81 39.496 17.77 56.489 17.81 19.435 45.77 23.329 69.14 32.717 4.07.78 7.3-3.5 7.01-7.24zm-302.02-.276c21.674-8.794 50.681-7.119 63.811-30.132 7.77-16.309 43.92-37.304 21.78-54.052-18.95-.955-35.16 13.219-51.63 21.22C84.062 47.78 65.47 61.149 53.77 79.466c-2.925 8.477 2.383 27.224 14.3 19.298zm192.68-75.138c11.29-19.491-27.3-13.867-38.78-16.451-17.17 1.273-50.9-7.67-55.53 12.833 16.93 11.335 39.04-3.49 58.22 1.749 11.92 1.177 24.23 5.98 36.09 1.869z"/></svg>